<svg xmlns="http://www.w3.org/2000/svg" viewBox="0 0 410 404" fill="none">
  <g clip-path="url(#a)">
    <path fill="url(#b)" d="M399.641 59.525 215.643 388.545c-3.722 6.733-13.46 6.772-17.242.071L10.338 59.557c-3.39-5.97 1.665-13.177 8.408-12.145l189.488 29.394a10 10 0 0 0 2.994-.002l179.944-29.36c6.73-1.098 11.829 5.916 8.479 11.894Z"/>
    <path fill="url(#c)" d="M292.965.027 156.789 26.451a5 5 0 0 0-4.03 4.524l-13.286 169.59a5 5 0 0 0 6.179 5.182l37.51-9.46c3.546-.895 6.752 2.306 5.86 5.854l-11.155 45.078c-.907 3.664 2.614 6.886 6.184 5.788l23.158-7.165c3.568-1.102 7.09 2.122 6.185 5.788l-17.73 71.3c-1.11 4.464 5.074 6.845 7.18 2.594L279.3 93.822c1.247-2.55-.817-5.46-3.61-4.947l-38.618 7.142c-3.59.663-6.455-2.904-5.18-6.313l25.116-68.558c1.278-3.488-1.57-7.11-5.22-6.375Z"/>
  </g>
  <defs>
    <linearGradient id="b" x1="6.153" x2="235.464" y1="32.46" y2="344.38" gradientUnits="userSpaceOnUse">
      <stop stop-color="#41D1FF"/>
      <stop offset="1" stop-color="#BD34FE"/>
    </linearGradient>
    <linearGradient id="c" x1="194.651" x2="236.076" y1="8.818" y2="292.779" gradientUnits="userSpaceOnUse">
      <stop stop-color="#FFEA83"/>
      <stop offset="0.083" stop-color="#FFDD35"/>
      <stop offset="1" stop-color="#FFA800"/>
    </linearGradient>
    <clipPath id="a">
      <path fill="#fff" d="M0 0h410v404H0z"/>
    </clipPath>
  </defs>
</svg>
